<svg version="1.1" id="Layer_1" xmlns="http://www.w3.org/2000/svg" xmlns:xlink="http://www.w3.org/1999/xlink" x="0px" y="0px"
	 width="100%" viewBox="0 0 1152 1152" enable-background="new 0 0 1152 1152" xml:space="preserve">
<path fill="#000000" opacity="1.000000" stroke="none" 
	d="
M509.000000,1153.000000 
	C339.333344,1153.000000 170.166672,1153.000000 1.000000,1153.000000 
	C1.000000,769.000000 1.000000,385.000000 1.000000,1.000000 
	C385.000000,1.000000 769.000000,1.000000 1153.000000,1.000000 
	C1153.000000,385.000000 1153.000000,769.000000 1153.000000,1153.000000 
	C938.500000,1153.000000 724.000000,1153.000000 509.000000,1153.000000 
M872.875305,810.160889 
	C932.447449,810.160889 992.019592,810.160889 1051.682373,810.160889 
	C1051.682373,773.863159 1051.682373,738.150757 1051.682373,702.215210 
	C1049.881348,702.133179 1048.413330,702.008057 1046.945312,702.007812 
	C989.801025,701.999695 932.656738,702.000244 875.512451,702.019592 
	C874.029358,702.020081 872.546387,702.241272 870.259949,702.609558 
	C870.144531,704.417175 869.930481,706.224609 869.928711,708.032349 
	C869.906067,731.433594 869.913757,754.834900 869.913696,778.236145 
	C869.913635,787.530273 869.835388,796.825806 870.004395,806.116882 
	C870.027466,807.389404 871.281067,808.639587 872.875305,810.160889 
M491.670929,545.669495 
	C485.337677,545.604858 479.003937,545.570679 472.671265,545.470581 
	C430.851837,544.809326 388.989746,545.004395 347.365387,540.016052 
	C333.454865,538.349060 319.524323,536.344788 306.814392,529.948181 
	C291.661896,522.322266 289.587982,505.452759 302.296539,494.191254 
	C304.638489,492.115967 307.269440,489.983887 310.151184,488.971039 
	C319.543182,485.669983 328.915527,481.595764 338.646576,480.093353 
	C400.636597,470.522430 462.814240,470.454559 524.970032,478.486359 
	C544.535889,481.014679 563.691833,485.626617 581.069885,495.547882 
	C589.773926,500.517090 597.387817,506.969238 600.459473,516.859009 
	C601.872437,521.408386 603.945679,522.142395 608.149658,522.132812 
	C665.982300,522.001160 723.815369,522.043884 781.648315,522.043701 
	C783.589722,522.043701 785.531067,522.043640 787.390747,522.043640 
	C787.679382,520.976135 787.917053,520.511230 787.914307,520.047791 
	C787.745239,491.200592 780.645203,464.362793 764.549316,440.187988 
	C747.858398,415.119476 724.848328,397.263824 698.617676,383.305328 
	C660.627625,363.089111 619.628540,352.127289 577.376587,345.944244 
	C482.174500,332.012726 386.960327,333.478333 291.988617,348.201752 
	C253.965286,354.096436 216.980667,364.068268 182.927612,382.807922 
	C135.383255,408.971832 109.876152,448.201294 112.099091,503.513123 
	C113.170448,530.170959 123.503349,552.554871 144.402573,569.607178 
	C165.449509,586.780090 190.296143,595.716064 216.209244,602.077026 
	C258.695770,612.506470 302.076660,615.723450 345.606262,616.749512 
	C406.414856,618.182800 467.246155,618.648254 528.055481,620.056519 
	C552.371948,620.619751 576.734863,622.249390 600.439148,628.272217 
	C607.739502,630.127136 614.890259,633.383911 621.440247,637.159729 
	C628.585144,641.278503 630.995972,648.303772 629.579041,656.580627 
	C627.827026,666.815857 621.531372,673.732178 612.342957,676.979736 
	C602.054626,680.616150 591.305359,683.939453 580.519043,685.013855 
	C514.630310,691.576782 448.732147,691.542969 383.017334,682.637451 
	C362.178925,679.813538 341.641541,675.357422 322.405457,666.370239 
	C312.746735,661.857727 303.928833,656.093262 298.830109,646.373047 
	C297.104156,643.082764 295.159698,642.445557 291.905365,642.448975 
	C230.072540,642.513916 168.239639,642.493713 106.406738,642.491211 
	C104.782890,642.491150 103.159035,642.491211 101.237503,642.491211 
	C101.237503,645.044373 101.152122,647.018005 101.250511,648.982422 
	C102.434959,672.630188 109.276581,694.422363 122.636261,714.076660 
	C142.225662,742.895813 169.325211,762.674194 200.057999,777.899292 
	C243.262177,799.302856 289.488617,810.581055 336.928284,817.040771 
	C432.485596,830.052551 528.085999,828.506653 623.544006,815.908264 
	C658.999634,811.228943 693.739380,803.236938 726.442261,788.081055 
	C776.501587,764.881592 804.808533,727.099487 805.184387,670.575806 
	C805.368530,642.886841 797.631958,618.285583 777.135193,598.742859 
	C764.136475,586.349243 748.557495,578.104675 731.912720,571.795471 
	C694.588135,557.647644 655.525330,551.576660 616.028381,549.332703 
	C574.960693,546.999573 533.771606,546.803345 491.670929,545.669495 
z"/>
<path fill="#EFECE7" opacity="1.000000" stroke="none" 
	d="
M492.153259,545.671143 
	C533.771606,546.803345 574.960693,546.999573 616.028381,549.332703 
	C655.525330,551.576660 694.588135,557.647644 731.912720,571.795471 
	C748.557495,578.104675 764.136475,586.349243 777.135193,598.742859 
	C797.631958,618.285583 805.368530,642.886841 805.184387,670.575806 
	C804.808533,727.099487 776.501587,764.881592 726.442261,788.081055 
	C693.739380,803.236938 658.999634,811.228943 623.544006,815.908264 
	C528.085999,828.506653 432.485596,830.052551 336.928284,817.040771 
	C289.488617,810.581055 243.262177,799.302856 200.057999,777.899292 
	C169.325211,762.674194 142.225662,742.895813 122.636261,714.076660 
	C109.276581,694.422363 102.434959,672.630188 101.250511,648.982422 
	C101.152122,647.018005 101.237503,645.044373 101.237503,642.491211 
	C103.159035,642.491211 104.782890,642.491150 106.406738,642.491211 
	C168.239639,642.493713 230.072540,642.513916 291.905365,642.448975 
	C295.159698,642.445557 297.104156,643.082764 298.830109,646.373047 
	C303.928833,656.093262 312.746735,661.857727 322.405457,666.370239 
	C341.641541,675.357422 362.178925,679.813538 383.017334,682.637451 
	C448.732147,691.542969 514.630310,691.576782 580.519043,685.013855 
	C591.305359,683.939453 602.054626,680.616150 612.342957,676.979736 
	C621.531372,673.732178 627.827026,666.815857 629.579041,656.580627 
	C630.995972,648.303772 628.585144,641.278503 621.440247,637.159729 
	C614.890259,633.383911 607.739502,630.127136 600.439148,628.272217 
	C576.734863,622.249390 552.371948,620.619751 528.055481,620.056519 
	C467.246155,618.648254 406.414856,618.182800 345.606262,616.749512 
	C302.076660,615.723450 258.695770,612.506470 216.209244,602.077026 
	C190.296143,595.716064 165.449509,586.780090 144.402573,569.607178 
	C123.503349,552.554871 113.170448,530.170959 112.099091,503.513123 
	C109.876152,448.201294 135.383255,408.971832 182.927612,382.807922 
	C216.980667,364.068268 253.965286,354.096436 291.988617,348.201752 
	C386.960327,333.478333 482.174500,332.012726 577.376587,345.944244 
	C619.628540,352.127289 660.627625,363.089111 698.617676,383.305328 
	C724.848328,397.263824 747.858398,415.119476 764.549316,440.187988 
	C780.645203,464.362793 787.745239,491.200592 787.914307,520.047791 
	C787.917053,520.511230 787.679382,520.976135 787.390747,522.043640 
	C785.531067,522.043640 783.589722,522.043701 781.648315,522.043701 
	C723.815369,522.043884 665.982300,522.001160 608.149658,522.132812 
	C603.945679,522.142395 601.872437,521.408386 600.459473,516.859009 
	C597.387817,506.969238 589.773926,500.517090 581.069885,495.547882 
	C563.691833,485.626617 544.535889,481.014679 524.970032,478.486359 
	C462.814240,470.454559 400.636597,470.522430 338.646576,480.093353 
	C328.915527,481.595764 319.543182,485.669983 310.151184,488.971039 
	C307.269440,489.983887 304.638489,492.115967 302.296539,494.191254 
	C289.587982,505.452759 291.661896,522.322266 306.814392,529.948181 
	C319.524323,536.344788 333.454865,538.349060 347.365387,540.016052 
	C388.989746,545.004395 430.851837,544.809326 472.671265,545.470581 
	C479.003937,545.570679 485.337677,545.604858 492.153259,545.671143 
z"/>
<path fill="#D2FC52" opacity="1.000000" stroke="none" 
	d="
M871.063354,702.359497 
	C872.546387,702.241272 874.029358,702.020081 875.512451,702.019592 
	C932.656738,702.000244 989.801025,701.999695 1046.945312,702.007812 
	C1048.413330,702.008057 1049.881348,702.133179 1051.682373,702.215210 
	C1051.682373,738.150757 1051.682373,773.863159 1051.682373,810.160889 
	C992.019592,810.160889 932.447449,810.160889 872.366211,809.623169 
	C871.576294,807.294128 871.052307,805.502930 871.050598,803.711243 
	C871.017883,769.927368 871.047058,736.143433 871.063354,702.359497 
z"/>
<path fill="#D7F07B" opacity="1.000000" stroke="none" 
	d="
M870.661621,702.484497 
	C871.047058,736.143433 871.017883,769.927368 871.050598,803.711243 
	C871.052307,805.502930 871.576294,807.294128 871.911011,809.492798 
	C871.281067,808.639587 870.027466,807.389404 870.004395,806.116882 
	C869.835388,796.825806 869.913635,787.530273 869.913696,778.236145 
	C869.913757,754.834900 869.906067,731.433594 869.928711,708.032349 
	C869.930481,706.224609 870.144531,704.417175 870.661621,702.484497 
z"/>
</svg>